<svg width="18" height="16" viewBox="0 0 18 16" fill="none" xmlns="http://www.w3.org/2000/svg">
<path fill-rule="evenodd" clip-rule="evenodd" d="M1.66248 8.93751C1.66248 8.50949 2.00945 8.16251 2.43748 8.16251H6.81248C7.2405 8.16251 7.58748 8.50949 7.58748 8.93751C7.58748 9.36553 7.2405 9.71251 6.81248 9.71251H3.21248V14.5625C3.21248 14.9905 2.8655 15.3375 2.43748 15.3375C2.00945 15.3375 1.66248 14.9905 1.66248 14.5625V8.93751Z" fill="white"/>
<path fill-rule="evenodd" clip-rule="evenodd" d="M0.412476 14.5625C0.412476 14.1345 0.759455 13.7875 1.18748 13.7875H16.8125C17.2405 13.7875 17.5875 14.1345 17.5875 14.5625C17.5875 14.9905 17.2405 15.3375 16.8125 15.3375H1.18748C0.759455 15.3375 0.412476 14.9905 0.412476 14.5625Z" fill="white"/>
<path fill-rule="evenodd" clip-rule="evenodd" d="M6.03748 5.18751C6.03748 4.75949 6.38445 4.41251 6.81248 4.41251H11.1875C11.6155 4.41251 11.9625 4.75949 11.9625 5.18751C11.9625 5.61553 11.6155 5.96251 11.1875 5.96251H7.58748V14.5625C7.58748 14.9905 7.2405 15.3375 6.81248 15.3375C6.38445 15.3375 6.03748 14.9905 6.03748 14.5625V5.18751Z" fill="white"/>
<path fill-rule="evenodd" clip-rule="evenodd" d="M10.4125 1.43751C10.4125 1.00949 10.7595 0.662506 11.1875 0.662506H15.5625C15.9905 0.662506 16.3375 1.00949 16.3375 1.43751V14.5625C16.3375 14.9905 15.9905 15.3375 15.5625 15.3375H11.1875C10.7595 15.3375 10.4125 14.9905 10.4125 14.5625V1.43751ZM11.9625 2.21251V13.7875H14.7875V2.21251H11.9625Z" fill="white"/>
</svg>
