<svg width="20" height="16" viewBox="0 0 20 16" fill="none" xmlns="http://www.w3.org/2000/svg">
<path fill-rule="evenodd" clip-rule="evenodd" d="M0.833313 1.037C0.833313 0.652344 1.14378 0.340515 1.52677 0.340515H13.0812C13.4641 0.340515 13.7746 0.652344 13.7746 1.037V11.0947C13.7746 11.4793 13.4641 11.7912 13.0812 11.7912H1.52677C1.14378 11.7912 0.833313 11.4793 0.833313 11.0947V1.037ZM2.22022 1.73349V10.3982H12.3877V1.73349H2.22022Z" fill="white"/>
<path fill-rule="evenodd" clip-rule="evenodd" d="M12.3877 4.90536C12.3877 4.5207 12.6982 4.20887 13.0811 4.20887H16.1623C16.3462 4.20887 16.5226 4.28225 16.6527 4.41287L18.9635 6.73387C19.0936 6.86449 19.1666 7.04164 19.1666 7.22636V11.0947C19.1666 11.4794 18.8562 11.7912 18.4732 11.7912L13.0812 11.7912C12.6982 11.7912 12.3877 11.4794 12.3877 11.0947V4.90536ZM13.7746 5.60185V10.3982H17.7797V7.51486L15.8751 5.60185H13.7746Z" fill="white"/>
<path fill-rule="evenodd" clip-rule="evenodd" d="M4.99304 11.7911C4.31247 11.7911 3.76076 12.3453 3.76076 13.0288C3.76076 13.7124 4.31247 14.2665 4.99304 14.2665C5.6736 14.2665 6.22531 13.7124 6.22531 13.0288C6.22531 12.3453 5.6736 11.7911 4.99304 11.7911ZM2.37385 13.0288C2.37385 11.5759 3.5465 10.3982 4.99304 10.3982C6.43957 10.3982 7.61222 11.5759 7.61222 13.0288C7.61222 14.4817 6.43957 15.6595 4.99304 15.6595C3.5465 15.6595 2.37385 14.4817 2.37385 13.0288Z" fill="white"/>
<path fill-rule="evenodd" clip-rule="evenodd" d="M15.0069 11.7911C14.3263 11.7911 13.7746 12.3453 13.7746 13.0288C13.7746 13.7124 14.3263 14.2665 15.0069 14.2665C15.6874 14.2665 16.2392 13.7124 16.2392 13.0288C16.2392 12.3453 15.6874 11.7911 15.0069 11.7911ZM12.3877 13.0288C12.3877 11.5759 13.5603 10.3982 15.0069 10.3982C16.4534 10.3982 17.6261 11.5759 17.6261 13.0288C17.6261 14.4817 16.4534 15.6595 15.0069 15.6595C13.5603 15.6595 12.3877 14.4817 12.3877 13.0288Z" fill="white"/>
</svg>
