<svg width="14" height="14" viewBox="0 0 14 14" fill="none" xmlns="http://www.w3.org/2000/svg">
<path fill-rule="evenodd" clip-rule="evenodd" d="M6.99995 1.63335C4.03602 1.63335 1.63328 4.03608 1.63328 7.00001C1.63328 9.96394 4.03602 12.3667 6.99995 12.3667C9.96388 12.3667 12.3666 9.96394 12.3666 7.00001C12.3666 4.03608 9.96388 1.63335 6.99995 1.63335ZM0.699951 7.00001C0.699951 3.52062 3.52056 0.700012 6.99995 0.700012C10.4793 0.700012 13.3 3.52062 13.3 7.00001C13.3 10.4794 10.4793 13.3 6.99995 13.3C3.52056 13.3 0.699951 10.4794 0.699951 7.00001Z" fill="#4D4D4D"/>
<path fill-rule="evenodd" clip-rule="evenodd" d="M6.99995 6.62364C7.25768 6.62364 7.46662 6.83257 7.46662 7.0903L7.46663 9.44585C7.46663 9.70359 7.25769 9.91252 6.99996 9.91252C6.74223 9.91252 6.53329 9.70359 6.53329 9.44586L6.53328 7.09031C6.53328 6.83257 6.74222 6.62364 6.99995 6.62364Z" fill="#4D4D4D"/>
<path fill-rule="evenodd" clip-rule="evenodd" d="M7.52777 4.75834C7.52777 5.04984 7.29146 5.28614 6.99997 5.28614C6.70847 5.28614 6.47216 5.04984 6.47216 4.75834C6.47216 4.46684 6.70847 4.23053 6.99997 4.23053C7.29146 4.23053 7.52777 4.46684 7.52777 4.75834Z" fill="#4D4D4D"/>
</svg>
