<svg width="20" height="16" viewBox="0 0 20 16" fill="none" xmlns="http://www.w3.org/2000/svg">
<path fill-rule="evenodd" clip-rule="evenodd" d="M12.1074 0.290898C13.0654 -0.2316 14.2333 0.461727 14.2333 1.55287V14.4472C14.2333 15.5383 13.0653 16.2317 12.1074 15.7092L4.04696 11.3125H2.375C1.23591 11.3125 0.3125 10.3891 0.3125 9.25005V6.75005C0.3125 5.61096 1.23591 4.68755 2.375 4.68755H4.04692L12.1074 0.290898ZM12.6083 1.86873L5.06662 5.98236V10.0177L12.6083 14.1313V1.86873ZM1.9375 6.75005C1.9375 6.50842 2.13338 6.31255 2.375 6.31255H3.4375V9.68755H2.375C2.13338 9.68755 1.9375 9.49167 1.9375 9.25005V6.75005Z" fill="white"/>
<path d="M18.6387 3.32579C18.919 3.67619 18.8622 4.18749 18.5118 4.46781L16.4284 6.13448C16.078 6.4148 15.5667 6.35799 15.2864 6.00759C15.0061 5.65719 15.0629 5.14589 15.4133 4.86557L17.4966 3.1989C17.847 2.91858 18.3583 2.97539 18.6387 3.32579Z" fill="white"/>
<path d="M15.5041 8.02087C15.5041 7.57214 15.8679 7.20837 16.3166 7.20837H18.8583C19.307 7.20837 19.6708 7.57214 19.6708 8.02087C19.6708 8.46961 19.307 8.83338 18.8583 8.83338H16.3166C15.8679 8.83338 15.5041 8.46961 15.5041 8.02087Z" fill="white"/>
<path d="M16.4284 10.2823C16.078 10.0019 15.5667 10.0588 15.2864 10.4092C15.0061 10.7596 15.0629 11.2709 15.4133 11.5512L17.4966 13.2178C17.847 13.4982 18.3583 13.4414 18.6387 13.091C18.919 12.7406 18.8622 12.2292 18.5118 11.9489L16.4284 10.2823Z" fill="white"/>
</svg>
