<svg width="18" height="20" viewBox="0 0 18 20" fill="none" xmlns="http://www.w3.org/2000/svg">
<path fill-rule="evenodd" clip-rule="evenodd" d="M13.297 1.98737C13.1117 1.19626 12.4056 0.625 11.5802 0.625H6.4197L6.28877 0.629913L6.1527 0.645423L6.01887 0.671421C5.22777 0.856753 4.65651 1.56287 4.65651 2.38819V2.60323H3.19435L3.04432 2.60717C1.70297 2.67794 0.614075 3.69145 0.614075 4.96848V17.0098L0.618513 17.1505C0.698025 18.4071 1.83545 19.375 3.19435 19.375H14.8056L14.9556 19.3711C16.297 19.3003 17.3859 18.2868 17.3859 17.0098V4.96848L17.3814 4.82771C17.3019 3.57113 16.1645 2.60323 14.8056 2.60323H13.3434V2.38819L13.3385 2.25726L13.323 2.12119L13.297 1.98737ZM13.3434 3.89336V4.10837C13.3434 4.93369 12.7722 5.63981 11.9811 5.82514L11.8472 5.85114L11.7112 5.86665L11.5802 5.87156H6.4197C5.59438 5.87156 4.88826 5.3003 4.70293 4.5092L4.67693 4.37537L4.66142 4.2393L4.65651 4.10837V3.89336H3.19435C2.50885 3.89336 1.97088 4.33572 1.90996 4.86776L1.90421 4.96848V17.0098C1.90421 17.5516 2.40186 18.0259 3.06763 18.0798L3.19435 18.0849H14.8056C15.4911 18.0849 16.0291 17.6425 16.09 17.1105L16.0957 17.0098V4.96848C16.0957 4.42661 15.5981 3.95238 14.9323 3.89846L14.8056 3.89336H13.3434ZM6.67746 1.61411H11.3225C11.7695 1.61411 12.159 1.90084 12.3003 2.31864L12.3303 2.42573L12.3485 2.53612L12.3546 2.64625L12.3541 3.86708L12.3451 3.98931L12.3238 4.10085L12.2868 4.21899C12.1781 4.50363 11.9482 4.72443 11.6587 4.8251L11.5475 4.85711L11.4312 4.87652L11.3225 4.88246L6.66072 4.88191L6.53849 4.87291L6.42695 4.85165L6.30881 4.81468C6.02417 4.70593 5.80337 4.47604 5.7027 4.18656L5.67069 4.07533L5.65128 3.95905L5.64535 3.85031L5.64589 2.62948L5.65489 2.50725L5.67615 2.39571L5.71312 2.27757C5.82187 1.99293 6.05176 1.77213 6.34124 1.67146L6.45247 1.63945L6.56875 1.62004L6.67746 1.61411Z" fill="white"/>
<path d="M4.4629 10.5959C4.93813 10.5959 5.32337 10.2107 5.32337 9.73547C5.32337 9.26025 4.93813 8.875 4.4629 8.875C3.98768 8.875 3.60243 9.26025 3.60243 9.73547C3.60243 10.2107 3.98768 10.5959 4.4629 10.5959Z" fill="white"/>
<path d="M7.04434 8.9485C6.61232 8.9485 6.2621 9.29872 6.2621 9.73075C6.2621 10.1628 6.61232 10.513 7.04434 10.513H13.6152C14.0472 10.513 14.3975 10.1628 14.3975 9.73075C14.3975 9.29872 14.0472 8.9485 13.6152 8.9485H7.04434Z" fill="white"/>
<path d="M6.26213 14.1522C6.26213 13.7202 6.61236 13.3699 7.04438 13.3699H13.6152C14.0473 13.3699 14.3975 13.7202 14.3975 14.1522C14.3975 14.5842 14.0473 14.9344 13.6152 14.9344H7.04438C6.61236 14.9344 6.26213 14.5842 6.26213 14.1522Z" fill="white"/>
<path d="M4.46294 15.0174C4.93816 15.0174 5.32341 14.6321 5.32341 14.1569C5.32341 13.6817 4.93816 13.2964 4.46294 13.2964C3.98771 13.2964 3.60247 13.6817 3.60247 14.1569C3.60247 14.6321 3.98771 15.0174 4.46294 15.0174Z" fill="white"/>
</svg>
