<svg width="18" height="19" viewBox="0 0 18 19" fill="none" xmlns="http://www.w3.org/2000/svg">
<path fill-rule="evenodd" clip-rule="evenodd" d="M17.8083 7.41667C17.6833 7.16667 17.4249 7 17.1416 7H10.0916L10.8666 0.816667C10.9083 0.5 10.7333 0.183333 10.4333 0.0583333C10.3416 0.0166667 10.2416 0 10.1499 0C9.93328 0 9.72494 0.0916667 9.58328 0.258333L0.833278 10.7583C0.649944 10.975 0.616611 11.2833 0.733278 11.5333C0.849944 11.7917 1.11661 11.9583 1.39161 11.9583H8.44161L7.66661 18.1333C7.63328 18.4583 7.80828 18.7667 8.09994 18.9C8.39994 19.025 8.74994 18.9417 8.95828 18.6917L17.7083 8.19167C17.8833 7.975 17.9249 7.675 17.8083 7.41667ZM9.42494 15.85L9.99161 11.3167C10.0166 11.1083 9.94994 10.9 9.81661 10.7417C9.67494 10.5917 9.47494 10.5 9.26661 10.5H2.94994L9.10828 3.10833L8.54161 7.63333C8.51661 7.84167 8.58328 8.05 8.72494 8.20833C8.85828 8.36667 9.05828 8.45833 9.26661 8.45833H15.5833L9.42494 15.85Z" fill="white"/>
</svg>
