<svg width="18" height="18" viewBox="0 0 18 18" fill="none" xmlns="http://www.w3.org/2000/svg">
<path d="M16.0809 9.83335C16.7713 9.83335 17.3309 10.393 17.3309 11.0834V16.0834C17.3309 16.7737 16.7713 17.3334 16.0809 17.3334H11.0809C10.3906 17.3334 9.83091 16.7737 9.83091 16.0834V11.0834C9.83091 10.393 10.3906 9.83335 11.0809 9.83335H16.0809ZM6.91669 9.83335C7.60704 9.83335 8.16669 10.393 8.16669 11.0834V16.0834C8.16669 16.7737 7.60704 17.3334 6.91669 17.3334H1.91669C1.22633 17.3334 0.666687 16.7737 0.666687 16.0834V11.0834C0.666687 10.393 1.22633 9.83335 1.91669 9.83335H6.91669ZM15.9142 11.25H11.2475V15.9167H15.9142V11.25ZM6.75002 11.25H2.08335V15.9167H6.75002V11.25ZM6.91669 0.666687C7.60704 0.666687 8.16669 1.22633 8.16669 1.91669V6.91669C8.16669 7.60704 7.60704 8.16669 6.91669 8.16669H1.91669C1.22633 8.16669 0.666687 7.60704 0.666687 6.91669V1.91669C0.666687 1.22633 1.22633 0.666687 1.91669 0.666687H6.91669ZM16.0809 0.666687C16.7713 0.666687 17.3309 1.22633 17.3309 1.91669V6.91669C17.3309 7.60704 16.7713 8.16669 16.0809 8.16669H11.0809C10.3906 8.16669 9.83091 7.60704 9.83091 6.91669V1.91669C9.83091 1.22633 10.3906 0.666687 11.0809 0.666687H16.0809ZM6.75002 2.08335H2.08335V6.75002H6.75002V2.08335ZM15.9142 2.08335H11.2475V6.75002H15.9142V2.08335Z" fill="white"/>
</svg>
